<svg width="3805" height="798" viewBox="0 0 3805 798" fill="none" xmlns="http://www.w3.org/2000/svg">
<g clip-path="url(#clip0)">
<rect width="3805" height="798" fill="white"/>
<rect x="-1.99121" y="3.11719" width="3826.35" height="794.883" fill="white"/>
<path d="M1.13489 293.016L3824.36 255.609V420.82C3824.36 420.82 3764.96 723.188 3189.76 589.148C2614.56 455.109 2373.85 598.5 1786.14 707.602C1198.43 816.703 1023.37 679.547 563.833 679.547C104.296 679.547 1.13489 798 1.13489 798V293.016Z" fill="#E25750" fill-opacity="0.63"/>
<path d="M1.13489 0V723.188C1.13489 723.188 214.756 590.96 534.826 567.328C900.712 540.314 1039.19 689.139 1405.58 670.195C1821.8 648.676 2259.61 171.808 2632.14 358.477C3546.59 816.703 3824.36 495.633 3824.36 495.633V0H1.13489Z" fill="#E25750"/>
<path d="M1.13489 0V723.188C1.13489 723.188 214.756 590.96 534.826 567.328C900.712 540.314 1039.19 689.139 1405.58 670.195C1821.8 648.676 2259.61 171.808 2632.14 358.477C3546.59 816.703 3824.36 495.633 3824.36 495.633V0H1.13489Z" stroke="#E25750"/>
<path d="M1.13489 0V723.188C1.13489 723.188 214.756 590.96 534.826 567.328C900.712 540.314 1039.19 689.139 1405.58 670.195C1821.8 648.676 2259.61 171.808 2632.14 358.477C3546.59 816.703 3824.36 495.633 3824.36 495.633V0H1.13489Z" stroke="#E25750"/>
<path d="M-27 685.781C-27 685.781 247.546 550.718 466.924 526.805C801.771 490.305 1090.74 639.241 1426.64 614.086C1836.75 583.373 2273.81 112.219 2580.17 286.781C2886.53 461.344 3296.05 623.438 3577.4 570.445C3724.84 542.674 3830.61 411.469 3830.61 411.469" stroke="white" stroke-width="4"/>
</g>
<defs>
<clipPath id="clip0">
<rect width="3805" height="798" fill="white"/>
</clipPath>
</defs>
</svg>
